# xmcd CD database file
#
# Track frame offsets:
#	150
#	13679
#	24353
#	38074
#	51385
#	68374
#	85809
#	96601
#	109483
#	123715
#	136809
#	151750
#	164836
#	176110
#	187076
#	206030
#	221246
#	233108
#	244343
#	256626
#
# Disc length: 3680 seconds
#
# Revision: 1
# Processed by: cddbd v1.5.2PL0 Copyright (c) Steve Scherf et al.
# Submitted via: CDex 1.50beta10
#
DISCID=250e5e14
DTITLE=Kris - Willie - Dolly - Brenda - The Winning Hand
DYEAR=1900
DGENRE=Country
TTITLE0=You're Gonna Love Yourself (In The Morning) - Brenda Lee and Willie Nelson
TTITLE1=Ping Pong - Dolly Parton and Kris Kristofferson
TTITLE2=You'll Always Have Someone - Willie Nelson
TTITLE3=Here Comes That Rainbow Again - Kris Kristofferson
TTITLE4=The Bigger the Fool, the Harder the Fall - Kris Kristofferson and Brenda Lee
TTITLE5=Help Me Make It Through the Night - Kris Kristofferson and Brenda Lee
TTITLE6=Happy, Happy Birthday Baby - Dolly Parton and Willie Nelson
TTITLE7=You Left Me a Long, Long Time Ago - Brenda Lee and Willie Nelson
TTITLE8=To Make a Long Story Short, She's Gone - Willie Nelson and Kris Kristofferson
TTITLE9=Someone Loves You Honey - Brenda Lee
TTITLE10=Everything's Beautiful - Dolly Parton and Willie Nelson
TTITLE11=Bring on the Sunshine - Brenda Lee
TTITLE12=Put If Off Until Tomorrow - Dolly Parton and Kris Kristofferson
TTITLE13=I Never Cared for You - Willie Nelson
TTITLE14=Casey's Last Ride - Kris Kristofferson and Willie Nelson
TTITLE15=King of a Lonely Castle - Willie Nelson
TTITLE16=The Little Things - Dolly Parton
TTITLE17=The Bandits of Beverly Hills - Kris Kristofferson
TTITLE18=What Do You Think About Lovin' - Dolly Parton and Brenda Lee
TTITLE19=Born to Love Me - Brenda Lee and Kris Kristofferson
EXTD=
EXTT0=
EXTT1=
EXTT2=
EXTT3=
EXTT4=
EXTT5=
EXTT6=
EXTT7=
EXTT8=
EXTT9=
EXTT10=
EXTT11=
EXTT12=
EXTT13=
EXTT14=
EXTT15=
EXTT16=
EXTT17=
EXTT18=
EXTT19=
PLAYORDER=
